<svg width="96" height="30" viewBox="0 0 96 30" fill="none" xmlns="http://www.w3.org/2000/svg">
<path d="M29.0553 11.7003C29.0553 10.802 28.9331 10.1415 28.6888 9.71874C28.4445 9.2784 27.9558 9.05824 27.2228 9.05824H26.6992V8.52983H29.0553C29.701 8.52983 30.1897 8.6179 30.5213 8.79403C30.8703 8.97017 31.1234 9.23437 31.2805 9.58664H31.4114C31.7779 9.21676 32.2491 8.90852 32.825 8.66193C33.4184 8.39773 34.0816 8.26563 34.8146 8.26563C36.1235 8.26563 37.1881 8.6179 38.0084 9.32244C38.8461 10.027 39.2649 11.2599 39.2649 13.0213V20.9473H36.9089V13.0213C36.9089 11.7883 36.6296 10.89 36.0711 10.3264C35.5301 9.74516 34.8495 9.45454 34.0292 9.45454C33.1042 9.45454 32.2316 9.9213 31.4114 10.8548V20.9473H29.0553V11.7003Z" fill="#282830"/>
<path d="M46.5411 21.2115C45.5638 21.2115 44.7959 20.9297 44.2374 20.3661C43.679 19.8025 43.3997 18.9394 43.3997 17.7769V9.58664H41.5672V8.52983H43.3997V6.15201L44.7086 4.5668H45.7558V8.52983H48.8972V9.58664H45.7558V17.7769C45.7558 19.3621 46.3666 20.1547 47.5883 20.1547C48.0071 20.1547 48.3562 20.1107 48.6354 20.0226C48.9321 19.9346 49.2375 19.8025 49.5517 19.6263L49.8135 20.1547C49.4121 20.4541 48.967 20.7095 48.4784 20.9209C47.9897 21.1147 47.344 21.2115 46.5411 21.2115Z" fill="#282830"/>
<path d="M54.6798 21.2115C54.1213 21.2115 53.5541 21.097 52.9782 20.8681C52.4023 20.6215 51.9049 20.2252 51.486 19.6792C51.0846 19.1331 50.8839 18.411 50.8839 17.5127C50.8839 16.1741 51.4948 15.2229 52.7164 14.6593C53.9555 14.0957 55.5699 13.8139 57.5595 13.8139H58.3448C58.3448 12.0878 58.1092 10.9076 57.638 10.2736C57.1668 9.63948 56.4861 9.32244 55.5961 9.32244C54.8107 9.32244 54.1824 9.48977 53.7112 9.82442C53.24 10.1591 52.9084 10.7403 52.7164 11.5682H51.5384C51.5384 10.9693 51.5733 10.5025 51.6431 10.1679C51.7129 9.81562 51.8962 9.48977 52.1929 9.19034C52.507 8.87329 53.0218 8.64432 53.7374 8.50341C54.4704 8.34489 55.2645 8.26563 56.1196 8.26563C57.5333 8.26563 58.6502 8.65313 59.4705 9.42812C60.2907 10.1855 60.7009 11.6474 60.7009 13.8139V20.9473H59.392L58.4757 19.7584H58.3448C58.0307 20.1635 57.5682 20.507 56.9573 20.7888C56.3465 21.0706 55.5873 21.2115 54.6798 21.2115ZM55.8578 20.0226C56.4338 20.0226 56.9137 19.8817 57.2977 19.5999C57.6816 19.3181 58.0307 18.9306 58.3448 18.4374V14.8707H57.5595C56.268 14.8707 55.247 15.1173 54.4966 15.6104C53.7461 16.086 53.3709 16.7201 53.3709 17.5127C53.3709 18.3229 53.6065 18.9482 54.0777 19.3885C54.5664 19.8113 55.1597 20.0226 55.8578 20.0226Z" fill="#282830"/>
<path d="M64.5608 11.7003C64.5608 10.802 64.4386 10.1415 64.1943 9.71874C63.95 9.2784 63.4613 9.05824 62.7283 9.05824H62.4665V8.52983H64.5608C65.224 8.52983 65.7214 8.62671 66.053 8.82045C66.402 8.99659 66.6463 9.29602 66.786 9.71874H66.9169C67.231 9.31363 67.6499 8.97017 68.1734 8.68835C68.7145 8.40654 69.3427 8.26563 70.0583 8.26563C70.7564 8.26563 71.2799 8.39773 71.629 8.66193C71.9257 8.89091 72.2311 9.28721 72.5452 9.85084L71.4981 10.6434C71.3061 10.3792 71.0269 10.1855 70.6604 10.0622C70.2939 9.9213 69.875 9.85084 69.4038 9.85084C68.8802 9.85084 68.4003 9.97414 67.964 10.2207C67.5277 10.4497 67.1786 10.7667 66.9169 11.1719V20.9473H64.5608V11.7003Z" fill="#282830"/>
<path d="M79.3169 21.2115C78.1301 21.2115 77.1266 20.9297 76.3064 20.3661C75.4861 19.7848 74.8665 19.0098 74.4477 18.0411C74.0288 17.0547 73.8194 15.9539 73.8194 14.7386C73.8194 13.5409 74.0288 12.4488 74.4477 11.4625C74.8665 10.4761 75.4687 9.70113 76.254 9.1375C77.0568 8.55625 77.9905 8.26563 79.0551 8.26563C80.8178 8.26563 82.1267 8.76761 82.9819 9.77158C83.8545 10.7579 84.2908 12.1934 84.2908 14.0781L84.2385 15.1349H76.3064C76.3064 16.6144 76.6205 17.8209 77.2488 18.7544C77.8771 19.688 78.741 20.1547 79.8405 20.1547C80.6607 20.1547 81.3501 19.9786 81.9086 19.6263C82.4845 19.274 83.0168 18.7456 83.5055 18.0411L84.0291 18.4374C83.4531 19.4061 82.7812 20.1107 82.0133 20.551C81.2454 20.9914 80.3466 21.2115 79.3169 21.2115ZM81.8039 14.0781C81.8039 12.5281 81.577 11.348 81.1232 10.5378C80.6695 9.72755 79.9801 9.32244 79.0551 9.32244C78.5316 9.32244 78.0603 9.5338 77.6415 9.95652C77.2226 10.3616 76.891 10.9253 76.6467 11.6474C76.4198 12.3696 76.3064 13.1798 76.3064 14.0781H81.8039Z" fill="#282830"/>
<path d="M91.4188 21.2115C89.4117 21.2115 88.0592 20.8593 87.3611 20.1547C87.0644 19.8553 86.8812 19.5206 86.8113 19.1508C86.7415 18.7633 86.7066 18.1732 86.7066 17.3806H87.2302C87.3873 18.2613 87.7625 18.9482 88.3559 19.4414C88.9667 19.9169 89.8131 20.1547 90.8952 20.1547C91.8551 20.1547 92.5706 19.9874 93.0418 19.6527C93.5305 19.3181 93.7748 18.8689 93.7748 18.3053C93.7748 17.7945 93.5829 17.3542 93.1989 16.9843C92.8324 16.6144 92.239 16.2621 91.4188 15.9275L89.848 15.267C88.8009 14.8443 88.0156 14.3511 87.492 13.7875C86.9684 13.2238 86.7066 12.5281 86.7066 11.7003C86.7066 10.6258 87.108 9.78919 87.9108 9.19034C88.7136 8.57387 89.7521 8.26563 91.0261 8.26563C92.9458 8.26563 94.2548 8.6179 94.9529 9.32244C95.2496 9.62187 95.4328 9.95652 95.5026 10.3264C95.5724 10.6963 95.6073 11.2863 95.6073 12.0966H95.0838C94.9442 11.2159 94.5776 10.5378 93.9843 10.0622C93.3909 9.56903 92.5793 9.32244 91.5497 9.32244C90.7294 9.32244 90.0837 9.49857 89.6124 9.85084C89.1587 10.1855 88.9318 10.6258 88.9318 11.1719C88.9318 12.0878 89.6299 12.8363 91.0261 13.4176L92.5968 14.0781C93.7836 14.5713 94.6475 15.0997 95.1885 15.6633C95.7295 16.2093 96 16.9138 96 17.7769C96 18.8513 95.5724 19.6968 94.7173 20.3132C93.8621 20.9121 92.7626 21.2115 91.4188 21.2115Z" fill="#282830"/>
<path fill-rule="evenodd" clip-rule="evenodd" d="M15.6349 6.52018L18.7117 11.9706C19.0591 11.9639 19.408 11.9612 19.7595 11.9612C20.6599 11.9612 21.5487 11.982 22.4231 12.0222L15.6349 0L8.17566 13.2103C9.47133 12.9082 10.8453 12.6553 12.2821 12.4581L15.6349 6.52018ZM21.9511 17.707L20.0414 14.325C15.7182 14.9947 12.0016 16.1825 9.32839 17.707H21.9511ZM4.86172 23.4162C4.86172 25.9578 7.21305 28.2713 11.0603 30C4.43425 28.3724 0 25.4002 0 22.004C0 19.3587 2.68981 16.9708 7.00949 15.2754C8.17995 14.8154 9.47065 14.4064 10.86 14.0569C11.0586 14.007 11.2591 13.9584 11.4615 13.9109C13.805 13.3616 16.4096 12.9785 19.1804 12.8008C19.4696 12.7822 19.7605 12.7657 20.0528 12.7517C20.93 12.7093 21.8228 12.6875 22.7279 12.6875C22.7514 12.6875 22.7753 12.6875 22.7989 12.688C26.7757 12.6924 30.5121 13.1164 33.7596 13.8567L33.7603 13.857C34.1234 13.9397 34.4801 14.0264 34.8306 14.1171C34.6978 14.1007 34.5651 14.0852 34.4316 14.0697C34.3511 14.0431 34.2686 14.0174 34.1861 13.9916C34.1514 13.9808 34.1167 13.97 34.0822 13.9591C34.1146 13.9693 34.147 13.9795 34.1795 13.9896C34.2641 14.016 34.3488 14.0425 34.4316 14.0699C32.4433 13.84 30.3472 13.7173 28.1826 13.7173C26.5757 13.7173 25.0064 13.7851 23.491 13.9139L27.4739 20.9672H5.61157C5.12208 21.7496 4.86172 22.5701 4.86172 23.4162Z" fill="#FF7416"/>
</svg>
