<svg width="64" height="20" viewBox="0 0 64 20" fill="none" xmlns="http://www.w3.org/2000/svg">
<path d="M19.3702 7.80019C19.3702 7.20133 19.2888 6.761 19.1259 6.47918C18.963 6.18562 18.6372 6.03885 18.1485 6.03885H17.7995V5.68658H19.3702C19.8007 5.68658 20.1265 5.74529 20.3475 5.86271C20.5802 5.98013 20.749 6.15627 20.8537 6.39112H20.9409C21.1853 6.14453 21.4994 5.93904 21.8834 5.77464C22.2789 5.59851 22.7211 5.51044 23.2097 5.51044C24.0824 5.51044 24.7921 5.74529 25.3389 6.21498C25.8974 6.68467 26.1766 7.50664 26.1766 8.68087V13.9649H24.6059V8.68087C24.6059 7.8589 24.4198 7.26005 24.0475 6.88429C23.6868 6.4968 23.233 6.30305 22.6862 6.30305C22.0695 6.30305 21.4878 6.61422 20.9409 7.23656V13.9649H19.3702V7.80019Z" fill="#8F94A4"/>
<path d="M31.0275 14.141C30.3759 14.141 29.864 13.9532 29.4916 13.5774C29.1193 13.2017 28.9332 12.6263 28.9332 11.8513V6.39112H27.7115V5.68658H28.9332V4.10136L29.8058 3.04456H30.5039V5.68658H32.5982V6.39112H30.5039V11.8513C30.5039 12.9081 30.9111 13.4365 31.7255 13.4365C32.0048 13.4365 32.2375 13.4071 32.4236 13.3484C32.6214 13.2897 32.825 13.2017 33.0345 13.0842L33.209 13.4365C32.9414 13.6361 32.6447 13.8064 32.3189 13.9473C31.9932 14.0765 31.5627 14.141 31.0275 14.141Z" fill="#8F94A4"/>
<path d="M36.4532 14.141C36.0809 14.141 35.7028 14.0647 35.3188 13.9121C34.9349 13.7477 34.6033 13.4835 34.324 13.1195C34.0564 12.7555 33.9226 12.274 33.9226 11.6752C33.9226 10.7827 34.3299 10.1487 35.1443 9.7729C35.9704 9.39715 37.0466 9.20927 38.373 9.20927H38.8966C38.8966 8.05852 38.7395 7.27179 38.4254 6.84907C38.1112 6.42634 37.6575 6.21498 37.0641 6.21498C36.5405 6.21498 36.1216 6.32653 35.8075 6.54964C35.4934 6.77274 35.2723 7.16024 35.1443 7.71213H34.3589C34.3589 7.31289 34.3822 7.00172 34.4288 6.77861C34.4753 6.54377 34.5975 6.32653 34.7953 6.12691C35.0047 5.91555 35.3479 5.7629 35.8249 5.66896C36.3136 5.56328 36.843 5.51044 37.4131 5.51044C38.3555 5.51044 39.1002 5.76877 39.647 6.28543C40.1939 6.79035 40.4673 7.76497 40.4673 9.20927V13.9649H39.5947L38.9838 13.1723H38.8966C38.6871 13.4424 38.3788 13.6714 37.9716 13.8592C37.5644 14.0471 37.0583 14.141 36.4532 14.141ZM37.2386 13.3484C37.6225 13.3484 37.9425 13.2545 38.1985 13.0666C38.4544 12.8787 38.6871 12.6204 38.8966 12.2916V9.91381H38.373C37.512 9.91381 36.8314 10.0782 36.3311 10.407C35.8308 10.724 35.5806 11.1468 35.5806 11.6752C35.5806 12.2153 35.7377 12.6322 36.0518 12.9257C36.3776 13.2075 36.7732 13.3484 37.2386 13.3484Z" fill="#8F94A4"/>
<path d="M43.0406 7.80019C43.0406 7.20133 42.9591 6.761 42.7962 6.47918C42.6333 6.18562 42.3076 6.03885 41.8189 6.03885H41.6444V5.68658H43.0406C43.4827 5.68658 43.8143 5.75116 44.0353 5.88032C44.268 5.99775 44.4309 6.19737 44.524 6.47918H44.6113C44.8207 6.20911 45.0999 5.98013 45.449 5.79226C45.8097 5.60438 46.2285 5.51044 46.7056 5.51044C47.171 5.51044 47.52 5.59851 47.7527 5.77464C47.9505 5.92729 48.1541 6.1915 48.3635 6.56725L47.6654 7.09565C47.5375 6.91952 47.3513 6.79035 47.107 6.70816C46.8626 6.61422 46.5834 6.56725 46.2692 6.56725C45.9202 6.56725 45.6002 6.64945 45.3094 6.81384C45.0185 6.96649 44.7858 7.17785 44.6113 7.44792V13.9649H43.0406V7.80019Z" fill="#8F94A4"/>
<path d="M52.878 14.141C52.0868 14.141 51.4178 13.9532 50.871 13.5774C50.3241 13.1899 49.9111 12.6733 49.6318 12.0274C49.3526 11.3699 49.213 10.636 49.213 9.82574C49.213 9.02727 49.3526 8.29924 49.6318 7.64167C49.9111 6.9841 50.3125 6.46744 50.836 6.09169C51.3713 5.70419 51.9937 5.51044 52.7035 5.51044C53.8786 5.51044 54.7512 5.8451 55.3213 6.51441C55.9031 7.17198 56.1939 8.12898 56.1939 9.38541L56.159 10.0899H50.871C50.871 11.0763 51.0804 11.8806 51.4992 12.503C51.9181 13.1253 52.494 13.4365 53.227 13.4365C53.7739 13.4365 54.2334 13.3191 54.6058 13.0842C54.9897 12.8494 55.3446 12.4971 55.6704 12.0274L56.0194 12.2916C55.6355 12.9375 55.1875 13.4071 54.6756 13.7007C54.1636 13.9943 53.5644 14.141 52.878 14.141ZM54.5359 9.38541C54.5359 8.35208 54.3847 7.56535 54.0822 7.0252C53.7797 6.48505 53.3201 6.21498 52.7035 6.21498C52.3544 6.21498 52.0403 6.35589 51.761 6.6377C51.4818 6.90778 51.2607 7.28353 51.0978 7.76497C50.9466 8.2464 50.871 8.78655 50.871 9.38541H54.5359Z" fill="#8F94A4"/>
<path d="M60.9459 14.141C59.6079 14.141 58.7062 13.9062 58.2408 13.4365C58.043 13.2369 57.9208 13.0138 57.8743 12.7672C57.8277 12.5089 57.8045 12.1155 57.8045 11.5871H58.1535C58.2582 12.1742 58.5084 12.6322 58.904 12.9609C59.3112 13.278 59.8755 13.4365 60.5968 13.4365C61.2368 13.4365 61.7138 13.325 62.0279 13.1018C62.3537 12.8787 62.5166 12.5793 62.5166 12.2036C62.5166 11.863 62.3886 11.5695 62.1326 11.3229C61.8883 11.0763 61.4927 10.8415 60.9459 10.6183L59.8987 10.178C59.2006 9.8962 58.6771 9.56741 58.328 9.19166C57.979 8.8159 57.8045 8.35208 57.8045 7.80019C57.8045 7.08391 58.0721 6.52615 58.6073 6.12691C59.1425 5.71593 59.8347 5.51044 60.6841 5.51044C61.9639 5.51044 62.8366 5.74529 63.302 6.21498C63.4998 6.4146 63.6219 6.6377 63.6685 6.88429C63.715 7.13088 63.7383 7.52425 63.7383 8.0644H63.3892C63.2961 7.47728 63.0518 7.0252 62.6562 6.70816C62.2606 6.37937 61.7196 6.21498 61.0331 6.21498C60.4863 6.21498 60.0558 6.3324 59.7417 6.56725C59.4392 6.79035 59.2879 7.08391 59.2879 7.44792C59.2879 8.05852 59.7533 8.55757 60.6841 8.94507L61.7312 9.38541C62.5224 9.71419 63.0983 10.0665 63.459 10.4422C63.8197 10.8062 64.0001 11.2759 64.0001 11.8513C64.0001 12.5676 63.715 13.1312 63.1449 13.5422C62.5748 13.9414 61.8418 14.141 60.9459 14.141Z" fill="#8F94A4"/>
<path fill-rule="evenodd" clip-rule="evenodd" d="M10.4232 4.34679L12.4744 7.98044C12.7061 7.97592 12.9387 7.97414 13.173 7.97414C13.7733 7.97414 14.3658 7.98802 14.9487 8.0148L10.4232 0L5.45042 8.80684C6.3142 8.60548 7.23022 8.43688 8.18804 8.30538L10.4232 4.34679ZM14.6341 11.8047L13.361 9.55002C10.4788 9.99646 8.00109 10.7883 6.21893 11.8047H14.6341ZM3.24115 15.6108C3.24115 17.3052 4.8087 18.8475 7.37353 20C2.95617 18.915 0 16.9335 0 14.6693C0 12.9058 1.79321 11.3138 4.673 10.1836C5.4533 9.87691 6.31377 9.60423 7.24004 9.37125C7.37243 9.33801 7.50608 9.30559 7.641 9.27396C9.20334 8.90771 10.9397 8.6523 12.7869 8.53387C12.9797 8.52145 13.1737 8.51048 13.3685 8.50112C13.9533 8.47289 14.5486 8.45836 15.152 8.45836C15.1676 8.45836 15.1835 8.45836 15.1993 8.45868C17.8505 8.46159 20.3414 8.74427 22.5064 9.23782L22.5069 9.23798C22.7489 9.29317 22.9867 9.35093 23.2204 9.41143C23.1319 9.40046 23.0434 9.39013 22.9544 9.37981C22.9007 9.36208 22.8457 9.34491 22.7907 9.32774C22.7676 9.32053 22.7445 9.31332 22.7215 9.30607C22.7431 9.31287 22.7647 9.31963 22.7863 9.32639C22.8428 9.34402 22.8992 9.36166 22.9544 9.37996C21.6289 9.22669 20.2315 9.14489 18.7884 9.14489C17.7171 9.14489 16.6709 9.19007 15.6607 9.2759L18.316 13.9781H3.74105C3.41472 14.4998 3.24115 15.0467 3.24115 15.6108Z" fill="#8F94A4"/>
</svg>
