<svg width="42" height="35" viewBox="0 0 42 35" fill="none" xmlns="http://www.w3.org/2000/svg">
<path d="M17.7356 34.9429C17.0494 33.9856 16.4946 32.9289 16.0951 31.7989C15.597 31.7333 15.1062 31.6444 14.6263 31.5305C14.546 31.5109 14.4653 31.4913 14.3864 31.4718C14.3663 31.4663 14.3469 31.4612 14.3272 31.4558C14.2253 31.4289 14.1227 31.4025 14.0208 31.372L14.0157 31.3705C13.9171 31.3437 13.8185 31.3154 13.7217 31.2849C13.6373 31.2603 13.5534 31.2334 13.469 31.2048C13.3832 31.1765 13.2974 31.1478 13.2112 31.1177C13.1308 31.0912 13.0519 31.0626 12.9712 31.0324C12.8924 31.0038 12.8138 30.9737 12.735 30.9432C12.2712 30.7655 11.8198 30.5627 11.3812 30.3385C11.2753 30.2852 11.1712 30.2319 11.0693 30.1749C10.894 30.0806 10.7216 29.9827 10.5515 29.8815C10.4781 29.8386 10.4069 29.794 10.3349 29.7498C10.301 29.7302 10.267 29.7088 10.2326 29.6874C10.1556 29.6395 10.0807 29.5894 10.0055 29.5397C9.93209 29.4933 9.86053 29.4436 9.78858 29.3953C8.949 28.8244 8.17295 28.1663 7.47288 27.4368C7.39034 27.3549 7.31181 27.2696 7.23475 27.1844C7.17011 27.1147 7.10769 27.0436 7.04488 26.9725C6.94262 26.8568 6.84255 26.7393 6.74541 26.6203C6.68479 26.551 6.62745 26.4795 6.57194 26.4066C6.49525 26.3091 6.4178 26.2111 6.34476 26.1132C6.27465 26.0207 6.20492 25.9264 6.13845 25.832C6.0687 25.7377 6.00223 25.6419 5.93795 25.5458C5.80721 25.3535 5.6816 25.1595 5.55999 24.9603C5.49717 24.8606 5.438 24.7612 5.38103 24.6596C5.32186 24.5584 5.26453 24.4568 5.20902 24.3556C5.08887 24.1351 4.97275 23.9109 4.86501 23.6849C4.82046 23.596 4.77917 23.505 4.73791 23.4143C4.69664 23.3254 4.65756 23.2347 4.61775 23.144C4.58196 23.0638 4.54804 22.9837 4.5159 22.9021C4.48559 22.8273 4.45491 22.7526 4.42642 22.6779C4.35302 22.4893 4.28107 22.297 4.21679 22.1033C4.17735 21.9912 4.13973 21.8791 4.10577 21.7652C4.10394 21.7616 4.1021 21.7561 4.10028 21.7511C4.06631 21.6426 4.03419 21.5338 4.00388 21.4253C3.91404 21.1141 3.83554 20.7974 3.76725 20.4789C3.74936 20.3987 3.73289 20.3171 3.71682 20.2351C3.70806 20.1887 3.69931 20.1426 3.69018 20.0965C3.67959 20.0341 3.66718 19.9717 3.65769 19.9097C3.64162 19.8205 3.62735 19.7316 3.61493 19.6427C3.60069 19.5539 3.58647 19.4632 3.57588 19.3721C3.57004 19.3315 3.56455 19.2923 3.55944 19.2513C3.55213 19.1857 3.54338 19.1178 3.53608 19.0504C3.52914 18.9862 3.52183 18.9223 3.51818 18.8581C3.50759 18.7602 3.4988 18.6626 3.4915 18.5646C3.48237 18.4489 3.47507 18.3332 3.46996 18.216C3.46266 18.0931 3.45719 17.9686 3.45573 17.846C3.45208 17.7212 3.45024 17.5986 3.45024 17.4742C3.45024 9.5074 9.97665 3.02463 17.9971 3.02463C18.1227 3.02463 18.2476 3.02607 18.3714 3.0297C18.4967 3.03151 18.6205 3.03697 18.7439 3.04422C18.8659 3.0493 18.9875 3.05655 19.1095 3.06707L19.1255 3.06707C19.2398 3.07614 19.353 3.08665 19.4655 3.09754C19.5641 3.10806 19.6613 3.11857 19.7577 3.12945C19.8187 3.13671 19.8775 3.14544 19.9385 3.15269C20.0246 3.16321 20.1105 3.17552 20.1945 3.19003C20.2018 3.19003 20.2105 3.19151 20.2178 3.19333C20.304 3.20602 20.3902 3.22017 20.4742 3.23431C20.5476 3.24701 20.6192 3.25935 20.6907 3.27349C20.7967 3.29308 20.9022 3.31266 21.0059 3.33588C21.5738 3.45486 22.1307 3.60612 22.6738 3.79113C22.7808 3.82668 22.8867 3.86403 22.9926 3.90321C23.0963 3.94057 23.1982 3.97795 23.3019 4.01895C23.4418 4.07408 23.5798 4.13103 23.7175 4.1898C23.8037 4.22535 23.8917 4.2627 23.9775 4.30369C24.0706 4.34468 24.1656 4.38894 24.2584 4.43356C24.377 4.49051 24.495 4.54749 24.6133 4.60807C24.7101 4.65776 24.8065 4.70743 24.9033 4.75894C25.0125 4.81952 25.1239 4.88013 25.2309 4.94216C25.3331 4.99911 25.4335 5.05785 25.534 5.12024C25.5354 5.12206 25.5391 5.12208 25.5409 5.12389C25.7254 5.23417 25.9061 5.34951 26.0836 5.46886C26.0982 5.47757 26.1125 5.48845 26.1249 5.49752C26.2213 5.56136 26.3162 5.6274 26.4116 5.69487C26.5065 5.76089 26.6011 5.82835 26.6942 5.89945C26.7873 5.96693 26.8804 6.03803 26.9721 6.11094C27.0473 6.16826 27.1204 6.22666 27.1938 6.28906C27.3125 6.38337 27.4286 6.48132 27.5437 6.58071C27.6203 6.64673 27.6956 6.71421 27.7708 6.78168L27.7723 6.78349C27.8584 6.86003 27.9446 6.93839 28.0272 7.02038C28.1112 7.09873 28.1955 7.17853 28.2777 7.26233C28.4391 7.42049 28.5965 7.58407 28.7484 7.7513C28.8291 7.84054 28.9117 7.93122 28.9902 8.02372C29.1425 8.19639 29.2896 8.37235 29.431 8.55191C29.5172 8.66219 29.603 8.77245 29.6874 8.88636C29.7374 8.95238 29.7856 9.01804 29.8323 9.08587C29.8484 9.10691 29.8645 9.12833 29.8805 9.15155C29.9397 9.23353 29.9989 9.31694 30.0544 9.40218C30.1117 9.48417 30.1654 9.56616 30.2194 9.64959C30.2961 9.76713 30.3717 9.88468 30.4448 10.0055C30.5631 10.1977 30.6759 10.3932 30.7837 10.5924C30.9947 10.9751 31.1861 11.3702 31.3621 11.7739C31.4012 11.8664 31.4425 11.9607 31.4801 12.055C31.4819 12.0587 31.4837 12.0637 31.4852 12.0692C31.5144 12.1403 31.5429 12.2099 31.5696 12.281C31.5944 12.3449 31.62 12.4109 31.6448 12.4765C31.6696 12.5444 31.6952 12.6137 31.7182 12.6829C31.754 12.7809 31.7883 12.8788 31.8201 12.9782C31.8526 13.078 31.8847 13.1777 31.915 13.2789C31.9209 13.288 31.9227 13.2985 31.9245 13.309C31.9548 13.4052 31.9833 13.505 32.0103 13.6029C32.0406 13.7077 32.0692 13.8125 32.0962 13.9196C32.1769 14.2381 32.2485 14.5598 32.3073 14.8856C32.3274 14.994 32.3452 15.1025 32.3631 15.2128C32.381 15.3213 32.3971 15.4315 32.4117 15.5422C33.5507 15.935 34.6164 16.485 35.5834 17.1644C35.4187 7.65554 27.6075 -6.95502e-07 17.9971 -1.53354e-06C8.28214 -2.38069e-06 0.405605 7.82241 0.405604 17.4742C0.405603 27.0367 8.14117 34.8058 17.7356 34.9429Z" fill="#FD4D5C"/>
<path d="M20.1692 34.9521C19.7707 34.9521 19.4854 34.8647 19.3131 34.6898C19.1408 34.5041 19.0546 34.1599 19.0546 33.6573C19.0546 33.3185 19.0869 32.8869 19.1515 32.3624C19.2269 31.827 19.3454 31.0949 19.5069 30.1661C19.7869 28.4506 20.0076 26.9646 20.1692 25.708C20.2661 24.9213 20.3145 24.2657 20.3145 23.7412C20.3145 23.2495 20.1369 23.0036 19.7815 23.0036C19.5015 23.0036 19.1623 23.1511 18.7639 23.4462C18.3762 23.7303 17.9455 24.1892 17.4717 24.8229C17.3209 25.0306 17.154 25.1344 16.9709 25.1344C16.8202 25.1344 16.6856 25.0633 16.5671 24.9213C16.4594 24.7683 16.4056 24.5989 16.4056 24.4132C16.4056 24.2384 16.4379 24.0635 16.5025 23.8887C16.5779 23.7029 16.6963 23.4953 16.8579 23.2659C17.3747 22.5338 17.9509 21.9711 18.5862 21.5777C19.2215 21.1734 19.8569 20.9713 20.4922 20.9713C21.0845 20.9713 21.5368 21.1625 21.8491 21.5449C22.1721 21.9273 22.3336 22.4846 22.3336 23.2167C22.3336 23.5117 22.3067 23.8614 22.2529 24.2657C22.199 24.659 22.1506 24.9814 22.1075 25.2327C22.0644 25.484 22.0321 25.6588 22.0106 25.7572C22.6244 23.9761 23.3136 22.7359 24.0781 22.0366C24.8427 21.3264 25.6826 20.9713 26.598 20.9713C27.2979 20.9713 27.8471 21.2226 28.2455 21.7252C28.6547 22.2278 28.8593 22.9381 28.8593 23.8559C28.8593 24.2165 28.8109 24.6645 28.714 25.1999C29.2524 23.692 29.8823 22.6103 30.6038 21.9547C31.3253 21.2991 32.1545 20.9713 33.0913 20.9713C33.8451 20.9713 34.4212 21.2171 34.8197 21.7088C35.2289 22.2005 35.4335 22.8889 35.4335 23.774C35.4335 24.2548 35.3635 24.8393 35.2235 25.5277L34.2382 30.2153C34.1305 30.7617 34.0767 31.2315 34.0767 31.6249C34.0767 32.0838 34.179 32.428 34.3836 32.6575C34.5989 32.8869 34.8951 33.0016 35.272 33.0016C35.6273 33.0016 35.9719 32.8815 36.3057 32.6411C36.6503 32.4007 36.8896 32.5099 37.3527 31.9527C37.4819 31.7997 37.5878 31.7824 37.7493 31.7824C37.8893 31.7824 38.0233 31.7724 38.0987 31.9035C38.1848 32.0346 38.4056 31.7232 38.4056 31.9527C38.4056 32.3788 38.3033 32.7175 38.0987 32.9689C37.5387 33.6573 36.9841 34.1599 36.435 34.4768C35.8858 34.7936 35.3097 34.9521 34.7066 34.9521C33.7913 34.9521 33.0752 34.6789 32.5583 34.1326C32.0414 33.5753 31.783 32.8323 31.783 31.9035C31.783 31.2588 31.9122 30.3246 32.1706 29.1008L32.8167 26.1014C32.8383 26.003 32.876 25.8282 32.9298 25.5769C32.9837 25.3256 33.0267 25.0907 33.059 24.8721C33.0913 24.6427 33.1075 24.4187 33.1075 24.2001C33.1075 23.8177 33.0321 23.5336 32.8814 23.3478C32.7414 23.1511 32.5368 23.0528 32.2676 23.0528C31.7614 23.0528 31.2284 23.3861 30.6684 24.0526C30.1192 24.7082 29.5916 25.8009 29.0855 27.3306C28.5901 28.8604 28.1863 30.8491 27.874 33.2967C27.7986 33.9523 27.664 34.3948 27.4702 34.6243C27.2871 34.8428 26.9856 34.9521 26.5656 34.9521C26.1995 34.9521 25.9303 34.8647 25.758 34.6898C25.5965 34.515 25.5157 34.1872 25.5157 33.7064C25.5157 33.2584 25.5749 32.6738 25.6934 31.9527C25.8119 31.2206 25.9626 30.3628 26.1457 29.3794C26.641 26.7351 26.8887 25.0306 26.8887 24.2657C26.8887 23.8505 26.8079 23.5445 26.6464 23.3478C26.4957 23.1511 26.2641 23.0528 25.9518 23.0528C25.4242 23.0528 24.8804 23.3588 24.3204 23.9707C23.7605 24.5716 23.2113 25.6479 22.6728 27.1995C22.1452 28.7402 21.7037 30.8272 21.3483 33.4606C21.2729 34.0178 21.1599 34.4057 21.0091 34.6243C20.8691 34.8428 20.5891 34.9521 20.1692 34.9521Z" fill="#FD4D5C"/>
<path d="M34.6411 34.9646L34.1534 33.5044L34.0097 31.5469C34.964 31.9394 38.8431 32.0309 41.3557 30.5721L41.5585 33.9599C40.4772 34.5119 39.1449 34.7498 34.6411 34.9646Z" fill="#FD4D5C"/>
</svg>
