<svg width="37" height="37" viewBox="0 0 37 37" fill="none" xmlns="http://www.w3.org/2000/svg">
<path fill-rule="evenodd" clip-rule="evenodd" d="M0.210444 15.6245L0.213093 15.6074L0.214353 15.6026L15.6035 0.213936L15.6064 0.213274C15.6064 0.213274 15.6106 0.212948 15.6125 0.211979C15.6421 0.207656 15.672 0.203183 15.7019 0.198697C15.748 0.191782 15.7943 0.184838 15.8404 0.17837C16.2647 0.119231 16.6938 0.0749607 17.1243 0.0449066C17.1465 0.043322 17.1688 0.0423116 17.1912 0.0413019C17.2099 0.0404585 17.2285 0.0396155 17.2471 0.0384388C17.6368 0.0138785 18.0275 0 18.4172 0C18.6483 0 18.8797 0.00516666 19.1114 0.0135689C19.5273 0.0290807 19.9429 0.0578495 20.3553 0.10083C20.5692 0.122805 20.7825 0.148962 20.9941 0.17837C21.0365 0.18451 21.0801 0.190992 21.1231 0.197779L21.2262 0.212957C21.3002 0.223945 21.3748 0.235883 21.4479 0.24881H21.4498H21.453L21.4569 0.249786C21.5233 0.260183 21.589 0.271616 21.6552 0.283155L21.6789 0.287279C21.878 0.323473 22.0758 0.365475 22.2732 0.407486C22.3909 0.432693 22.5075 0.458544 22.6238 0.485689C22.8216 0.531901 23.0197 0.578459 23.213 0.630165L23.2314 0.635656L23.2437 0.639191L23.3048 0.655697C23.3177 0.658929 23.3306 0.662461 23.3432 0.666016L23.3461 0.666994L23.3487 0.667973L23.35 0.668289L23.3548 0.668921C23.4479 0.694773 23.5452 0.722244 23.6473 0.752298L23.7294 0.777514C23.7756 0.791409 23.8212 0.8053 23.8674 0.819519C23.9116 0.833092 23.9566 0.84698 24.0015 0.861523L24.0128 0.865089L24.016 0.866068L24.0189 0.867361C24.2539 0.941365 24.4879 1.02183 24.7128 1.10326L24.7968 1.1346L24.8078 1.13848L24.8882 1.16853C25.022 1.21797 25.1675 1.27551 25.3449 1.34693C25.354 1.35038 25.3629 1.35403 25.372 1.35771C25.3748 1.35886 25.3776 1.36001 25.3804 1.36116C25.3939 1.36678 25.4075 1.37231 25.421 1.3778C25.4332 1.38272 25.4452 1.38761 25.457 1.3925L25.5281 1.42223L25.5291 1.42254L25.5313 1.42415L25.543 1.42901L25.5601 1.43612C25.6008 1.45292 25.6402 1.46972 25.68 1.48749L25.6842 1.48913L25.6881 1.49043L25.6913 1.49235L25.6958 1.49463C25.8613 1.56475 26.0329 1.64101 26.219 1.72923L26.2216 1.73021L26.2232 1.73053L26.2271 1.73245C26.23 1.73407 26.2329 1.73536 26.2362 1.73665C26.2381 1.73762 26.2401 1.73854 26.2421 1.73945C26.2447 1.74065 26.2473 1.74183 26.2497 1.74312L26.2507 1.74441L26.4084 1.81971C26.4692 1.8475 26.5283 1.87595 26.5868 1.90697L26.5926 1.90988L26.5949 1.91054L26.5978 1.9118C26.6018 1.91371 26.6056 1.91576 26.6094 1.91785C26.6114 1.91895 26.6134 1.92006 26.6155 1.92117C26.8831 2.05432 27.1497 2.19458 27.4109 2.34065C27.4144 2.34291 27.4183 2.34487 27.4225 2.34681C27.4506 2.36249 27.4787 2.37884 27.5069 2.39526C27.5176 2.40151 27.5284 2.40776 27.5392 2.414C27.5439 2.41674 27.5486 2.41945 27.5533 2.42217C27.5631 2.42775 27.5728 2.43334 27.5828 2.43921L27.6144 2.45764L27.7414 2.53098C27.748 2.53493 27.7546 2.53875 27.7613 2.5426C27.7655 2.54506 27.7698 2.54753 27.7741 2.55005L27.7773 2.55232L27.7809 2.55393C27.7927 2.56079 27.8045 2.56794 27.8163 2.5751C27.8222 2.57872 27.8282 2.58234 27.8342 2.58593C27.8467 2.59313 27.8586 2.60033 27.871 2.60773L27.8772 2.61146L27.8781 2.61244L27.9712 2.66899C28.031 2.70357 28.0892 2.7404 28.1467 2.77692L28.1544 2.7821L28.1557 2.78241L28.1616 2.78598C28.2194 2.82153 28.2756 2.85609 28.3312 2.89293L28.337 2.89681L28.3429 2.9007C28.3763 2.92185 28.4095 2.9435 28.4424 2.96499L28.4553 2.97341C28.4619 2.97752 28.4682 2.98163 28.4746 2.98581C28.4793 2.98885 28.484 2.99192 28.4889 2.99506L28.4934 2.99796L28.4976 3.00086L28.5061 3.0067C28.5339 3.02477 28.5617 3.04302 28.5894 3.0612C28.6137 3.07716 28.638 3.09308 28.6621 3.1088L28.665 3.11075L28.666 3.11205C28.6704 3.11479 28.6745 3.11762 28.6786 3.12044C28.6827 3.12326 28.6869 3.12609 28.6912 3.12883C28.7258 3.15242 28.7604 3.17602 28.795 3.19994L28.7988 3.20221L28.8008 3.20319C28.8783 3.25683 28.9546 3.31015 29.0309 3.36379L29.0389 3.3696L29.0477 3.37575C29.053 3.37921 29.0583 3.38315 29.0635 3.387C29.0655 3.38855 29.0676 3.39008 29.0696 3.39156L29.0791 3.3982C29.1074 3.41798 29.1358 3.43786 29.1634 3.45878L29.1656 3.46008L29.1676 3.46074L29.1695 3.46298L29.2015 3.48561C29.21 3.49171 29.2185 3.49793 29.2271 3.5042C29.2335 3.50887 29.2399 3.51357 29.2464 3.51827C29.254 3.52332 29.2613 3.52861 29.2684 3.53372L29.2716 3.53604L29.3511 3.59452L29.3721 3.61036L29.4303 3.65397L29.4351 3.65722L29.438 3.65915L29.4419 3.66205L29.4432 3.66303L29.4474 3.66625L29.449 3.66735C29.4536 3.67048 29.4579 3.67344 29.462 3.67692L29.4826 3.69244L29.5163 3.71861C29.5453 3.74026 29.5728 3.76127 29.6006 3.78292L29.6038 3.78488L29.6058 3.7868C29.7098 3.8663 29.8136 3.94742 29.9131 4.02757L29.9147 4.02851L29.9167 4.02949L29.9199 4.03274C29.9262 4.03776 29.9325 4.04278 29.9388 4.04783C29.9635 4.0675 29.9885 4.08747 30.013 4.10804L30.0178 4.11189L30.022 4.11514L30.0246 4.11738L30.0307 4.12291C30.0724 4.15555 30.1131 4.18945 30.1558 4.225L30.1707 4.23731L30.1994 4.26056L30.2001 4.26249L30.2392 4.29512L30.3103 4.35461C30.3474 4.38499 30.3823 4.41534 30.4172 4.44572C30.4227 4.45035 30.4283 4.45498 30.4339 4.45963C30.4454 4.46924 30.4571 4.4789 30.468 4.4887L30.4915 4.50909C30.5351 4.54696 30.5792 4.58515 30.6244 4.62542C30.6709 4.66678 30.7178 4.70911 30.765 4.75209L30.786 4.77115L30.8286 4.80963L30.8344 4.81543C30.8674 4.84484 30.8994 4.87458 30.932 4.90528C30.9369 4.9098 30.9414 4.91398 30.9466 4.9185L30.9534 4.92466L30.9563 4.92788L30.9595 4.93144C30.9777 4.94768 30.9944 4.96356 31.0112 4.97938C31.0224 4.99001 31.0336 5.00061 31.0451 5.01126C31.0564 5.02193 31.0679 5.03267 31.0794 5.04334C31.0951 5.05786 31.1106 5.07227 31.125 5.08624L31.1292 5.0911L31.1317 5.09432L31.1392 5.10012L31.1398 5.1011L31.167 5.12695C31.1768 5.13631 31.1866 5.14567 31.1964 5.15502C31.2161 5.17376 31.2357 5.19245 31.2549 5.21099C31.2658 5.22205 31.277 5.23304 31.2881 5.24389C31.299 5.2546 31.3099 5.26519 31.3201 5.27562L31.324 5.27916L31.3253 5.28045C28.9992 3.90087 26.336 3.1644 23.5639 3.1644C22.3776 3.1644 21.2094 3.29915 20.0718 3.56608C19.389 3.72605 18.7171 3.93352 18.0595 4.18817C15.8885 5.02871 13.9605 6.34269 12.3912 8.03509C11.9088 8.55538 11.4586 9.11025 11.0479 9.69969C9.25786 12.2646 8.31131 15.2794 8.31131 18.4183C8.31131 20.576 8.75857 22.6756 9.6198 24.6104C9.62343 24.6184 9.62727 24.6264 9.63112 24.6343C9.6355 24.6434 9.63991 24.6525 9.64404 24.6618C9.71513 24.8201 9.78817 24.9775 9.86508 25.1336C10.205 25.8261 10.5999 26.4954 11.0479 27.1369C12.2814 28.9056 13.8535 30.3756 15.6704 31.4737C15.4251 31.5183 15.1779 31.5535 14.93 31.5842C14.3826 31.6521 13.8293 31.689 13.2719 31.689C9.76102 31.689 6.45184 30.332 3.95344 27.8673C1.45714 25.4054 0.0536444 22.1198 0.0018738 18.6174L0.000871812 18.5679V18.5094C0.000575632 18.4986 0.00054543 18.4878 0.00051515 18.4771C0.000495873 18.4702 0.000476564 18.4634 0.000388568 18.4564C0.000388568 18.4499 0.000288918 18.4433 0.000190546 18.4369C9.46656e-05 18.4306 0 18.4244 0 18.4183C0 18.4118 9.7142e-05 18.4054 0.000194284 18.3991C0.000291426 18.3927 0.000388568 18.3863 0.000388568 18.3799C0.000476565 18.3728 0.000495874 18.3658 0.000515151 18.3588C0.000545431 18.3479 0.000575634 18.3369 0.000871812 18.3259V18.2648V18.2635L0.00126038 18.2486L0.0018738 18.215C0.0018738 18.1556 0.00313486 18.0971 0.00504152 18.0376V18.0127V18.0127C0.00504152 18.0011 0.00504152 17.9891 0.00591333 17.9781C0.00694745 17.9058 0.00882339 17.8356 0.0119904 17.76L0.0138957 17.7073C0.0141538 17.7002 0.014405 17.693 0.014656 17.6858C0.015851 17.6517 0.0170411 17.6177 0.0189373 17.5836L0.0198091 17.5719V17.57V17.559C0.0205672 17.5505 0.0208004 17.5429 0.021052 17.5347L0.0210695 17.5341C0.0212634 17.5322 0.0213607 17.5303 0.0214581 17.5283C0.0215554 17.5264 0.0216527 17.5244 0.0218466 17.5225V17.5196V17.5144L0.0223298 17.5108L0.0227184 17.5073C0.023828 17.4829 0.0251576 17.4584 0.0264899 17.4339C0.0271366 17.422 0.0277839 17.41 0.0284069 17.3981C0.029171 17.3839 0.029876 17.3696 0.0305809 17.3554C0.031605 17.3347 0.0326291 17.314 0.033835 17.2934V17.2905L0.0347068 17.2885C0.0384878 17.2061 0.0435311 17.1347 0.0496065 17.0665C0.0498381 17.0631 0.0500487 17.0598 0.0502594 17.0564C0.0506367 17.0504 0.0510142 17.0444 0.0515119 17.0384C0.0521178 17.0287 0.0527835 17.0192 0.0534515 17.0096C0.0541729 16.9993 0.054897 16.9889 0.0555514 16.9783C0.0563099 16.9686 0.057162 16.959 0.0580161 16.9493C0.0585812 16.943 0.0591472 16.9366 0.0596876 16.9301C0.0599769 16.9267 0.0602365 16.9233 0.060497 16.9198C0.0610512 16.9125 0.0616094 16.9051 0.0624667 16.8978C0.0632262 16.8875 0.0641152 16.8771 0.0650043 16.8666C0.0658933 16.8562 0.0667824 16.8458 0.0675418 16.8355C0.0678892 16.8309 0.0682298 16.8263 0.0685694 16.8218C0.0697147 16.8064 0.0708488 16.7912 0.0721947 16.776L0.0772363 16.7265V16.7214C0.0800709 16.6939 0.0824834 16.6664 0.0848867 16.6391C0.0868946 16.6162 0.0888961 16.5934 0.091132 16.5708C0.0926007 16.557 0.094064 16.5432 0.0955306 16.5294C0.101131 16.4766 0.106781 16.4233 0.112979 16.3708L0.113365 16.3695L0.11385 16.3665V16.3646L0.121186 16.3019C0.1271 16.2466 0.133175 16.1907 0.139865 16.1368L0.139925 16.1363C0.147726 16.0751 0.155526 16.0138 0.163455 15.9535L0.164974 15.9455L0.165751 15.9435L0.167011 15.9319L0.16853 15.9167L0.169143 15.9132L0.170404 15.9057L0.171437 15.8983L0.171664 15.897L0.173572 15.8821L0.174832 15.8731L0.182392 15.8236C0.183972 15.8103 0.185782 15.7972 0.187579 15.7843C0.188392 15.7784 0.189203 15.7726 0.189988 15.7667C0.190263 15.764 0.190622 15.7612 0.190978 15.7584C0.191417 15.7549 0.191852 15.7515 0.19212 15.7483L0.192509 15.7474L0.193381 15.7454V15.7422C0.19611 15.7193 0.19958 15.6965 0.20305 15.6736C0.204387 15.6648 0.205724 15.656 0.207018 15.6472L0.210444 15.6245ZM36.6284 21.1913L36.6265 21.2052C36.6245 21.2139 36.6233 21.223 36.6223 21.232L21.233 36.6213L21.2262 36.6223L21.2162 36.6242C21.1636 36.6328 21.1109 36.6402 21.0578 36.6477C21.043 36.6498 21.0281 36.6518 21.0132 36.654L20.9951 36.6572C20.1468 36.7752 19.2795 36.8356 18.4173 36.8356C17.556 36.8356 16.69 36.7752 15.8417 36.6572L15.8355 36.6562L15.8189 36.6539C15.7531 36.6446 15.6864 36.6353 15.6203 36.6242L15.6106 36.6223L15.6009 36.6213C15.5382 36.6126 15.4697 36.6016 15.3876 36.5877L15.3837 36.5867H15.3786C15.2952 36.5728 15.2289 36.5609 15.1675 36.5502L15.1614 36.5489L15.1559 36.547C14.6463 36.4568 14.1299 36.3418 13.6225 36.2051L13.6125 36.2031C13.6026 36.2005 13.5927 36.1978 13.5828 36.1952C13.5518 36.1869 13.5201 36.1784 13.4858 36.1686C13.454 36.1596 13.4223 36.1505 13.3905 36.1414C13.3408 36.1272 13.2911 36.1129 13.2408 36.0991L13.1833 36.0823L13.1527 36.0729C13.0945 36.0551 13.0364 36.0373 12.9781 36.0186L12.9723 36.0167L12.9652 36.0157C12.9199 36.0018 12.8754 35.9879 12.8295 35.9721L12.8227 35.9701L12.8149 35.9672C12.5906 35.8968 12.358 35.8176 12.123 35.7313L12.1169 35.7294L12.1101 35.7275C12.0597 35.7097 12.0099 35.6906 11.9605 35.6719L11.9553 35.6699L11.9505 35.668C11.7902 35.6076 11.6363 35.5481 11.4948 35.4906L11.4786 35.484C11.4256 35.4623 11.3732 35.4409 11.3213 35.4192C11.3064 35.4124 11.2925 35.4062 11.2796 35.4014C11.2369 35.3836 11.1923 35.3646 11.1497 35.3458L11.1458 35.3439L11.1419 35.3429C10.9684 35.2686 10.791 35.1894 10.6174 35.108C10.5599 35.0802 10.5037 35.0534 10.4461 35.0269C10.4404 35.0236 10.4347 35.0208 10.429 35.0179C10.4257 35.0163 10.4224 35.0147 10.419 35.0129C10.3589 34.9842 10.2981 34.9544 10.2371 34.9238C9.9614 34.7877 9.68606 34.6423 9.41428 34.4885C9.40124 34.4812 9.38827 34.4739 9.37533 34.4667C9.33727 34.4455 9.29953 34.4244 9.26143 34.4025L9.25594 34.3983L9.24979 34.3944C9.18548 34.3589 9.12118 34.3211 9.05751 34.2836C9.02487 34.2645 8.99191 34.2448 8.96056 34.2248L8.75116 34.0257H8.63417C8.61555 34.0137 8.59666 34.0017 8.57757 33.9896C8.5493 33.9717 8.52059 33.9535 8.49166 33.9346C8.45562 33.9125 8.42013 33.8893 8.38543 33.8666C8.37345 33.8588 8.36157 33.8511 8.34979 33.8434L8.25962 33.783L8.17431 33.7264L8.14878 33.7097C8.14121 33.7046 8.13358 33.6994 8.12591 33.6943C8.09952 33.6766 8.0727 33.6587 8.04666 33.6402L8.03955 33.6353L8.03276 33.6314C7.9552 33.5778 7.87829 33.5241 7.803 33.4708L7.76907 33.4469C7.76092 33.4411 7.75265 33.4352 7.74434 33.4294C7.72168 33.4134 7.69872 33.3972 7.67696 33.3806L7.66792 33.3745L7.65984 33.3687C7.63948 33.3538 7.61847 33.339 7.59779 33.3241L7.55901 33.2963C7.51732 33.2656 7.47596 33.2349 7.43524 33.2042L7.41035 33.1864C7.39743 33.1754 7.38353 33.1654 7.36867 33.1548C7.34281 33.1357 7.31825 33.117 7.2924 33.0973C7.28534 33.0917 7.27821 33.0863 7.27107 33.0808C7.25599 33.0692 7.24085 33.0576 7.22615 33.0455C7.12274 32.9673 7.02094 32.8878 6.9227 32.8086L6.91495 32.8019L6.9059 32.7948C6.87907 32.775 6.85128 32.7521 6.82382 32.7285L6.81154 32.7185L6.79861 32.7085L6.79245 32.7036C6.75645 32.6748 6.72393 32.6489 6.69487 32.6235L6.68195 32.6115L6.66805 32.6005C6.63855 32.5773 6.6101 32.5534 6.58151 32.5294C6.57471 32.5237 6.56791 32.518 6.56109 32.5123L6.55494 32.5065L6.52812 32.4836L6.39724 32.3708L6.39433 32.3695L6.36492 32.3439L6.35588 32.3372C6.31031 32.2974 6.26571 32.2577 6.22112 32.2179L6.21724 32.214L6.21304 32.2111C6.14388 32.1507 6.07634 32.0899 6.01009 32.0289L6.00589 32.0256L6.00298 32.0227C5.9687 31.9922 5.93543 31.9606 5.90228 31.9291L5.88923 31.9167L5.88147 31.9087L5.8721 31.9019C5.82787 31.8614 5.78326 31.8186 5.74237 31.7794C5.73009 31.7676 5.71814 31.7561 5.70664 31.7451L5.70083 31.7403L5.69566 31.7354C5.66528 31.7067 5.63555 31.6779 5.60582 31.6482L5.56897 31.6123C5.55734 31.6026 5.54603 31.5916 5.53505 31.5797L5.52535 31.5696L5.51469 31.56L5.51048 31.5561C7.83758 32.9347 10.4998 33.6709 13.2719 33.6709C15.1708 33.6709 17.0218 33.326 18.775 32.6471C21.6146 31.548 24.0396 29.6423 25.7879 27.1368C27.5779 24.5719 28.5245 21.5571 28.5245 18.4182C28.5245 15.2794 27.5779 12.2646 25.7879 9.69964C24.5541 7.93065 22.9822 6.45961 21.1654 5.36151C21.9514 5.21899 22.7531 5.14662 23.5639 5.14662C27.0745 5.14662 30.3836 6.50326 32.883 8.96802C35.3788 11.4299 36.7822 14.7154 36.8336 18.2179L36.8346 18.2654V18.2696C36.8356 18.3181 36.8356 18.3688 36.8356 18.4182C36.8356 18.4648 36.8356 18.5123 36.8346 18.5598L36.8336 18.5698V18.6322C36.8336 18.6878 36.8327 18.7433 36.8317 18.798V18.8325L36.8307 18.8422C36.8299 18.8706 36.8291 18.8989 36.8283 18.9274C36.8269 18.9758 36.8256 19.0248 36.8239 19.0752C36.8236 19.0837 36.8233 19.0922 36.823 19.1007C36.8211 19.1516 36.8192 19.2025 36.8159 19.2527L36.8149 19.2814V19.3102L36.8136 19.3309C36.81 19.4003 36.8058 19.4708 36.801 19.5432V19.548C36.7971 19.6282 36.7919 19.6996 36.7858 19.7671L36.7848 19.7791V19.7859C36.7822 19.8324 36.779 19.879 36.7742 19.9255L36.7732 19.9394L36.7722 19.9533C36.7703 19.9891 36.7674 20.0247 36.7632 20.0615L36.7583 20.111V20.1139C36.7561 20.1431 36.7531 20.1725 36.7501 20.2026C36.7478 20.2248 36.7455 20.2474 36.7435 20.2706C36.7379 20.333 36.7309 20.3949 36.7235 20.4598L36.7225 20.4687L36.7215 20.4787C36.7137 20.5498 36.7057 20.6212 36.696 20.6978L36.685 20.777L36.6711 20.892C36.6695 20.8998 36.6686 20.9085 36.6671 20.9172C36.6667 20.9194 36.6664 20.9216 36.6659 20.9237L36.6624 20.9464L36.6604 20.9693C36.6578 20.9899 36.6545 21.011 36.6512 21.032C36.6492 21.0453 36.6471 21.0584 36.6452 21.0714L36.6433 21.0824L36.6423 21.0921L36.6413 21.0982C36.6384 21.1238 36.6346 21.1506 36.6304 21.1764L36.6284 21.1913Z" fill="#86BAA1"/>
</svg>
