<svg width="51" height="36" viewBox="0 0 51 36" fill="none" xmlns="http://www.w3.org/2000/svg">
<path d="M14.5394 35.2716L14.5368 35.2665L13.2067 32.963L2.66028 14.6966H0L11.8765 35.2674L11.874 35.2716H11.8791H14.5336H14.5394Z" fill="#FFA451"/>
<path d="M25.1783 35.2716L25.1757 35.2665L23.8456 32.963L22.5161 30.6604L21.1856 28.3569L19.8561 26.0531L18.526 23.7496L13.2992 14.6966H10.6395L17.1959 26.0531L18.526 28.3569L19.8561 30.6604L21.1856 32.963L22.5161 35.2665L22.5125 35.2716H22.5183H25.1721H25.1783Z" fill="#FFA451"/>
<path d="M29.1648 32.963L27.8353 30.6604L26.5048 28.3569L25.1756 26.0531L23.8455 23.7496L22.516 21.4468L21.1856 19.1432L18.6184 14.6966H15.9591L19.8554 21.4461L22.516 26.0531L23.8455 28.3569L25.1756 30.6604L26.5048 32.963L27.8353 35.2665L27.832 35.2716H27.8375H30.4923H30.4975L30.4949 35.2674L29.1648 32.963Z" fill="#FFA451"/>
<path d="M34.898 5.72205e-06H32.2377L22.5296 16.8161L23.8597 19.1196L34.898 5.72205e-06Z" fill="#FFA451"/>
<path d="M17.1994 35.2716H19.859L19.8561 35.2665L18.5259 32.963L17.1968 30.6604L15.8663 28.3569L7.97987 14.6966H5.32025L14.5362 30.6595L15.8663 32.963L17.1968 35.2665L17.1932 35.2716H17.1994Z" fill="#FFA451"/>
<path d="M26.5191 23.726L40.2173 3.24249e-05H37.5576L25.1889 21.4225L25.2035 21.4467L26.5191 23.726Z" fill="#FFA451"/>
<path d="M29.179 28.333L45.5365 0.000102997H42.8772L27.8488 26.0289L27.863 26.0531L29.179 28.333Z" fill="#FFA451"/>
<path d="M50.856 5.72205e-05H48.1961L30.5084 30.6358L30.5226 30.6604L31.8386 32.9397L50.856 5.72205e-05Z" fill="#FFA451"/>
</svg>
