<svg width="20" height="20" viewBox="0 0 20 20" fill="none" xmlns="http://www.w3.org/2000/svg">
<g clip-path="url(#clip0_47_651)">
<circle cx="10" cy="10" r="2.5" stroke="#535662"/>
<path d="M4.21514 4.63631C3.4004 5.51445 2.8088 6.55657 2.46432 7.67305L3.49472 8.26796C4.82806 9.03776 4.82806 10.9623 3.49472 11.7321L2.46282 12.3278C2.63389 12.8799 2.8687 13.4217 3.16989 13.9434C3.47107 14.465 3.82284 14.9393 4.21543 15.3635L5.24736 14.7677C6.58069 13.9979 8.24736 14.9601 8.24736 16.4997L8.24736 17.6896C9.3865 17.9495 10.5848 17.9582 11.7527 17.6917L11.7527 16.4998C11.7527 14.9602 13.4193 13.9979 14.7527 14.7677L15.7849 15.3637C16.5996 14.4856 17.1912 13.4434 17.5357 12.327L16.5053 11.732C15.1719 10.9622 15.1719 9.03771 16.5053 8.26791L17.5372 7.67212C17.3661 7.12003 17.1313 6.57828 16.8301 6.05662C16.529 5.53495 16.1772 5.06071 15.7846 4.63651L14.7527 5.23228C13.4193 6.00208 11.7527 5.03983 11.7527 3.50023L11.7527 2.31042C10.6135 2.0505 9.41522 2.04179 8.24736 2.3083L8.24736 3.50021C8.24736 5.03981 6.58069 6.00206 5.24736 5.23226L4.21514 4.63631Z" stroke="#535662" stroke-linejoin="round"/>
</g>
<defs>
<clipPath id="clip0_47_651">
<rect width="20" height="20" fill="white"/>
</clipPath>
</defs>
</svg>
