<svg width="14" height="16" viewBox="0 0 14 16" fill="none" xmlns="http://www.w3.org/2000/svg">
<path fill-rule="evenodd" clip-rule="evenodd" d="M13 7.17401C13 10.63 10.3426 13.348 7.16541 13.348C3.98818 13.348 1.33083 10.63 1.33083 7.17401C1.33083 3.71797 3.98818 1 7.16541 1C10.3426 1 13 3.71797 13 7.17401ZM14 7.17401C14 11.1361 10.94 14.348 7.16541 14.348C5.63016 14.348 4.21313 13.8167 3.07214 12.9196L0.730681 15.4256L0 14.7429L2.33242 12.2466C1.09573 10.9484 0.330831 9.15495 0.330831 7.17401C0.330831 3.21191 3.39078 0 7.16541 0C10.94 0 14 3.21191 14 7.17401Z" fill="#8F94A4"/>
</svg>
