<svg width="20" height="20" viewBox="0 0 20 20" fill="none" xmlns="http://www.w3.org/2000/svg">
<path d="M13.3333 3.33331H15C15.442 3.33331 15.8659 3.50891 16.1785 3.82147C16.4911 4.13403 16.6666 4.55795 16.6666 4.99998V16.6666C16.6666 17.1087 16.4911 17.5326 16.1785 17.8452C15.8659 18.1577 15.442 18.3333 15 18.3333H4.99998C4.55795 18.3333 4.13403 18.1577 3.82147 17.8452C3.50891 17.5326 3.33331 17.1087 3.33331 16.6666V4.99998C3.33331 4.55795 3.50891 4.13403 3.82147 3.82147C4.13403 3.50891 4.55795 3.33331 4.99998 3.33331H6.66665" stroke="#282830" stroke-linecap="round" stroke-linejoin="round"/>
<path d="M12.5 1.66669H7.50002C7.03978 1.66669 6.66669 2.03978 6.66669 2.50002V4.16669C6.66669 4.62692 7.03978 5.00002 7.50002 5.00002H12.5C12.9603 5.00002 13.3334 4.62692 13.3334 4.16669V2.50002C13.3334 2.03978 12.9603 1.66669 12.5 1.66669Z" stroke="#282830" stroke-linecap="round" stroke-linejoin="round"/>
</svg>
